<?xml version="1.0" encoding="UTF-8" standalone="no"?>
<!DOCTYPE svg PUBLIC "-//W3C//DTD SVG 1.1//EN" "http://www.w3.org/Graphics/SVG/1.1/DTD/svg11.dtd">
<svg xmlns="http://www.w3.org/2000/svg" version="1.1" viewBox="0 0 512 512">
<g stroke-width="2.00" fill="none" stroke-linecap="butt">
<path stroke="#e9e8ea" stroke-opacity="0.957" vector-effect="non-scaling-stroke" d="
  M 251.71 506.75
  Q 252.12 504.73 251.00 502.50
  Q 189.91 380.57 82.19 164.31
  Q 79.50 158.93 77.64 155.39
  Q 75.41 151.14 73.22 146.43
  Q 70.92 141.50 68.25 136.75
  Q 67.60 135.60 66.50 133.13
  Q 65.85 131.68 64.75 129.50
  Q 58.37 116.89 51.89 104.34
  Q 44.57 90.17 37.86 75.71
  Q 37.09 74.04 36.02 71.06
  Q 35.10 68.48 34.06 66.44
  Q 13.89 26.68 10.44 19.56
  Q 9.26 17.14 7.54 16.50"
/>
<path stroke="#dee4e1" stroke-opacity="0.961" vector-effect="non-scaling-stroke" d="
  M 33.54 22.50
  Q 33.60 23.33 34.02 24.03
  Q 34.31 24.50 34.35 24.93
  Q 34.76 29.64 38.95 32.11"
/>
<path stroke="#dee4e1" stroke-opacity="0.961" vector-effect="non-scaling-stroke" d="
  M 97.79 150.00
  Q 97.32 151.76 98.54 151.75"
/>
<path stroke="#e9e8ea" stroke-opacity="0.957" vector-effect="non-scaling-stroke" d="
  M 121.79 198.00
  Q 122.12 202.54 124.54 206.27
  A 1.34 0.72 2.5 0 0 125.31 206.73
  Q 125.88 206.87 125.85 207.50
  Q 125.81 208.17 125.92 208.47
  Q 126.86 210.95 128.20 213.23
  Q 129.21 214.93 130.10 217.58
  Q 131.08 220.51 133.16 222.88
  Q 133.49 223.25 133.61 223.74
  Q 134.13 225.81 135.46 227.50"
/>
<path stroke="#dee4e1" stroke-opacity="0.961" vector-effect="non-scaling-stroke" d="
  M 135.46 227.50
  Q 135.74 229.52 137.14 230.92
  A 1.82 1.64 18.4 0 1 137.61 231.75
  Q 138.49 235.44 140.50 238.25
  Q 142.65 241.26 143.50 244.46"
/>
<path stroke="#dee4e1" stroke-opacity="0.961" vector-effect="non-scaling-stroke" d="
  M 143.50 244.46
  Q 145.54 247.84 146.96 251.52
  Q 147.51 252.95 148.78 254.48
  Q 149.92 255.86 150.71 257.50"
/>
<path stroke="#dee4e1" stroke-opacity="0.961" vector-effect="non-scaling-stroke" d="
  M 150.71 257.50
  Q 151.10 258.74 151.43 260.00
  Q 151.73 261.13 152.53 262.30
  Q 153.45 263.64 154.05 265.16
  Q 154.85 267.17 155.35 268.09
  Q 157.62 272.18 159.50 276.46"
/>
<path stroke="#dee4e1" stroke-opacity="0.961" vector-effect="non-scaling-stroke" d="
  M 159.50 276.46
  Q 173.31 303.53 177.50 312.25
  Q 178.82 314.99 179.78 316.76
  Q 181.64 320.20 182.12 321.23
  Q 186.89 331.46 192.23 341.41
  Q 192.27 341.48 194.37 346.27
  Q 195.83 349.61 198.71 352.00"
/>
</g>
<path fill="#ffffff" d="
  M 0.00 0.00
  L 512.00 0.00
  L 512.00 1.81
  Q 479.70 65.78 447.95 130.02
  Q 447.29 131.35 446.49 133.73
  Q 445.84 135.63 444.94 137.44
  Q 359.62 308.34 274.19 479.19
  Q 262.60 502.36 257.96 512.01
  L 253.94 512.00
  L 251.71 506.75
  Q 252.12 504.73 251.00 502.50
  Q 189.91 380.57 82.19 164.31
  Q 79.50 158.93 77.64 155.39
  Q 75.41 151.14 73.22 146.43
  Q 70.92 141.50 68.25 136.75
  Q 67.60 135.60 66.50 133.13
  Q 65.85 131.68 64.75 129.50
  Q 58.37 116.89 51.89 104.34
  Q 44.57 90.17 37.86 75.71
  Q 37.09 74.04 36.02 71.06
  Q 35.10 68.48 34.06 66.44
  Q 13.89 26.68 10.44 19.56
  Q 9.26 17.14 7.54 16.50
  L 0.00 1.69
  L 0.00 0.00
  Z
  M 35.75 20.79
  Q 33.17 20.04 33.54 22.50
  Q 33.60 23.33 34.02 24.03
  Q 34.31 24.50 34.35 24.93
  Q 34.76 29.64 38.95 32.11
  L 97.79 150.00
  Q 97.32 151.76 98.54 151.75
  L 121.79 198.00
  Q 122.12 202.54 124.54 206.27
  A 1.34 0.72 2.5 0 0 125.31 206.73
  Q 125.88 206.87 125.85 207.50
  Q 125.81 208.17 125.92 208.47
  Q 126.86 210.95 128.20 213.23
  Q 129.21 214.93 130.10 217.58
  Q 131.08 220.51 133.16 222.88
  Q 133.49 223.25 133.61 223.74
  Q 134.13 225.81 135.46 227.50
  Q 135.74 229.52 137.14 230.92
  A 1.82 1.64 18.4 0 1 137.61 231.75
  Q 138.49 235.44 140.50 238.25
  Q 142.65 241.26 143.50 244.46
  Q 145.54 247.84 146.96 251.52
  Q 147.51 252.95 148.78 254.48
  Q 149.92 255.86 150.71 257.50
  Q 151.10 258.74 151.43 260.00
  Q 151.73 261.13 152.53 262.30
  Q 153.45 263.64 154.05 265.16
  Q 154.85 267.17 155.35 268.09
  Q 157.62 272.18 159.50 276.46
  Q 173.31 303.53 177.50 312.25
  Q 178.82 314.99 179.78 316.76
  Q 181.64 320.20 182.12 321.23
  Q 186.89 331.46 192.23 341.41
  Q 192.27 341.48 194.37 346.27
  Q 195.83 349.61 198.71 352.00
  Q 209.13 372.66 219.33 393.43
  Q 220.20 395.19 220.79 397.06
  Q 221.52 399.34 222.19 400.68
  Q 238.93 433.87 255.31 467.37
  Q 255.88 468.54 256.47 467.38
  Q 259.15 462.20 261.56 456.58
  Q 264.56 449.57 266.47 445.73
  Q 372.34 233.74 478.47 21.49
  A 0.51 0.51 -76.6 0 0 478.02 20.75
  L 35.75 20.79
  Z"
/>
<path fill="#d0ced3" fill-opacity="0.910" d="
  M 7.54 16.50
  Q 9.26 17.14 10.44 19.56
  Q 13.89 26.68 34.06 66.44
  Q 35.10 68.48 36.02 71.06
  Q 37.09 74.04 37.86 75.71
  Q 44.57 90.17 51.89 104.34
  Q 58.37 116.89 64.75 129.50
  Q 65.85 131.68 66.50 133.13
  Q 67.60 135.60 68.25 136.75
  Q 70.92 141.50 73.22 146.43
  Q 75.41 151.14 77.64 155.39
  Q 79.50 158.93 82.19 164.31
  Q 189.91 380.57 251.00 502.50
  Q 252.12 504.73 251.71 506.75
  Q 249.59 502.88 242.00 487.75
  Q 163.55 331.27 85.31 174.69
  Q 53.69 111.39 39.88 83.38
  Q 38.25 80.09 35.60 73.82
  Q 33.56 68.99 31.20 64.31
  Q 19.19 40.49 7.54 16.50
  Z"
/>
<path fill="#bbc6c1" fill-opacity="0.918" d="
  M 33.54 22.50
  L 34.71 23.50
  L 38.95 32.11
  Q 34.76 29.64 34.35 24.93
  Q 34.31 24.50 34.02 24.03
  Q 33.60 23.33 33.54 22.50
  Z"
/>
<path fill="#ffffff" d="
  M 106.71 137.56
  A 1.58 1.57 -13.0 0 1 105.32 136.70
  Q 89.26 104.90 73.56 72.94
  Q 71.81 69.37 72.60 66.28
  Q 72.77 65.59 75.39 60.62
  Q 83.13 45.91 95.31 29.06
  Q 97.53 25.99 100.75 26.01
  Q 169.75 26.25 239.29 26.25
  Q 241.15 26.25 241.47 28.08
  Q 241.80 29.95 241.79 32.75
  Q 241.75 61.63 241.75 91.68
  Q 241.75 93.54 239.97 94.10
  Q 209.16 103.76 197.88 133.47
  Q 197.85 133.53 197.37 135.19
  Q 196.54 138.06 193.41 137.86
  Q 191.65 137.75 191.60 137.75
  Q 149.14 137.89 106.71 137.56
  Z"
/>
<path fill="#ffffff" d="
  M 270.66 27.41
  A 1.05 1.04 -87.6 0 1 271.63 26.51
  Q 277.74 26.11 283.75 26.12
  Q 348.00 26.25 412.63 26.25
  Q 414.53 26.25 415.69 27.77
  Q 429.29 45.73 439.31 65.69
  Q 440.67 68.40 439.01 71.79
  Q 423.19 104.10 406.69 136.68
  A 1.95 1.95 13.4 0 1 404.95 137.75
  L 318.80 137.75
  Q 316.58 137.75 315.88 135.64
  Q 306.28 106.48 276.96 95.61
  Q 273.97 94.50 271.68 93.46
  A 2.42 2.41 12.1 0 1 270.25 91.26
  Q 270.25 67.75 270.25 44.92
  Q 270.25 43.65 270.53 39.09
  Q 270.70 36.17 270.48 33.23
  Q 270.24 30.20 270.66 27.41
  Z"
/>
<path fill="#bbc6c1" fill-opacity="0.918" d="
  M 97.79 150.00
  Q 98.63 150.65 98.54 151.75
  Q 97.32 151.76 97.79 150.00
  Z"
/>
<path fill="#ffffff" d="
  M 239.98 214.08
  Q 241.75 214.63 241.75 216.49
  Q 241.75 281.25 241.85 345.25
  Q 241.86 349.13 241.47 353.35
  A 0.96 0.93 -83.6 0 1 240.42 354.22
  L 213.55 350.38
  A 2.56 2.26 73.6 0 1 211.95 349.37
  Q 209.19 345.60 207.21 341.62
  Q 164.64 256.06 121.94 170.56
  Q 120.67 168.02 122.78 166.87
  Q 123.80 166.31 125.93 166.31
  Q 160.09 166.20 194.08 166.25
  A 1.40 1.39 82.8 0 1 195.43 167.30
  Q 204.84 203.25 239.98 214.08
  Z"
/>
<path fill="#ffffff" d="
  M 272.32 354.14
  A 2.06 2.06 -88.3 0 1 270.52 352.23
  Q 270.33 349.50 270.33 347.00
  Q 270.20 281.78 270.31 216.55
  Q 270.31 214.74 272.05 214.24
  Q 302.88 205.23 314.68 175.87
  Q 314.92 175.28 316.12 171.56
  Q 316.79 169.50 317.79 167.32
  A 1.83 1.82 -77.6 0 1 319.45 166.25
  L 387.94 166.31
  Q 392.18 166.32 390.56 169.56
  Q 347.91 254.96 305.44 340.44
  Q 303.90 343.53 302.36 345.96
  Q 300.45 348.96 297.87 350.21
  Q 295.59 351.30 293.04 351.63
  Q 290.07 352.00 289.98 352.02
  Q 284.01 353.06 278.03 353.98
  Q 274.86 354.46 272.32 354.14
  Z"
/>
<path fill="#d0ced3" fill-opacity="0.910" d="
  M 121.79 198.00
  L 136.04 226.50
  Q 136.10 227.20 135.46 227.50
  Q 134.13 225.81 133.61 223.74
  Q 133.49 223.25 133.16 222.88
  Q 131.08 220.51 130.10 217.58
  Q 129.21 214.93 128.20 213.23
  Q 126.86 210.95 125.92 208.47
  Q 125.81 208.17 125.85 207.50
  Q 125.88 206.87 125.31 206.73
  A 1.34 0.72 2.5 0 1 124.54 206.27
  Q 122.12 202.54 121.79 198.00
  Z"
/>
<path fill="#bbc6c1" fill-opacity="0.918" d="
  M 136.04 226.50
  L 144.04 242.50
  Q 143.43 243.40 143.50 244.46
  Q 142.65 241.26 140.50 238.25
  Q 138.49 235.44 137.61 231.75
  A 1.82 1.64 18.4 0 0 137.14 230.92
  Q 135.74 229.52 135.46 227.50
  Q 136.10 227.20 136.04 226.50
  Z"
/>
<path fill="#bbc6c1" fill-opacity="0.918" d="
  M 144.04 242.50
  Q 148.05 249.19 150.79 256.50
  L 150.71 257.50
  Q 149.92 255.86 148.78 254.48
  Q 147.51 252.95 146.96 251.52
  Q 145.54 247.84 143.50 244.46
  Q 143.43 243.40 144.04 242.50
  Z"
/>
<path fill="#bbc6c1" fill-opacity="0.918" d="
  M 150.79 256.50
  Q 151.51 257.29 153.44 261.06
  Q 156.84 267.73 160.04 274.50
  Q 159.52 275.44 159.50 276.46
  Q 157.62 272.18 155.35 268.09
  Q 154.85 267.17 154.05 265.16
  Q 153.45 263.64 152.53 262.30
  Q 151.73 261.13 151.43 260.00
  Q 151.10 258.74 150.71 257.50
  L 150.79 256.50
  Z"
/>
<path fill="#bbc6c1" fill-opacity="0.918" d="
  M 160.04 274.50
  L 198.71 352.00
  Q 195.83 349.61 194.37 346.27
  Q 192.27 341.48 192.23 341.41
  Q 186.89 331.46 182.12 321.23
  Q 181.64 320.20 179.78 316.76
  Q 178.82 314.99 177.50 312.25
  Q 173.31 303.53 159.50 276.46
  Q 159.52 275.44 160.04 274.50
  Z"
/>
</svg>
