<?xml version="1.0" encoding="UTF-8" standalone="no"?>
<!DOCTYPE svg PUBLIC "-//W3C//DTD SVG 1.1//EN" "http://www.w3.org/Graphics/SVG/1.1/DTD/svg11.dtd">
<svg xmlns="http://www.w3.org/2000/svg" version="1.1" viewBox="0.00 0.00 890.00 890.00">
<path fill="#ffffff" d="
  M 159.53 450.97
  Q 155.79 451.44 152.43 452.45
  C 149.97 453.19 146.51 453.29 144.05 452.80
  Q 124.57 448.91 105.17 444.65
  C 94.87 442.38 87.02 436.60 83.80 426.27
  Q 82.00 420.51 82.00 417.50
  Q 81.99 350.00 82.01 282.50
  C 82.01 263.82 91.41 257.99 106.46 248.47
  Q 267.27 146.68 428.08 44.89
  C 439.72 37.53 452.75 39.44 463.75 46.40
  Q 625.82 148.94 787.87 251.51
  C 795.89 256.58 803.83 260.95 806.17 271.08
  C 806.92 274.32 807.98 277.47 807.99 280.80
  Q 808.01 324.79 808.00 368.78
  C 807.99 379.37 804.68 389.24 796.45 395.29
  Q 792.85 397.94 785.11 400.60
  C 769.42 405.99 751.87 414.05 735.63 414.02
  Q 706.76 413.98 677.91 414.00
  C 671.39 414.01 663.80 411.85 658.08 408.41
  Q 606.68 377.45 556.02 346.72
  Q 555.00 346.10 555.00 347.30
  L 555.00 551.74
  Q 555.00 552.66 555.79 552.19
  Q 606.49 522.08 657.07 491.56
  C 664.66 486.97 672.18 485.07 681.67 485.05
  Q 730.83 484.94 780.00 485.02
  C 784.06 485.02 792.03 487.24 795.94 489.83
  C 804.74 495.67 808.01 505.43 808.01 516.22
  Q 807.99 561.20 808.00 606.18
  C 808.00 611.23 806.77 619.04 804.15 623.39
  C 799.90 630.46 794.35 633.55 788.05 637.54
  Q 623.42 741.74 458.78 845.94
  C 455.56 847.98 446.63 850.42 442.92 849.72
  C 438.00 848.80 433.81 848.11 429.44 845.35
  Q 264.73 741.07 99.98 636.84
  Q 92.59 632.17 91.15 630.96
  C 84.50 625.37 82.02 615.76 82.01 607.04
  Q 81.98 561.40 82.01 515.75
  Q 82.01 513.62 83.49 507.86
  C 85.53 499.96 89.82 495.52 96.67 491.17
  Q 128.12 471.16 159.65 451.31
  Q 160.35 450.86 159.53 450.97
  Z
  M 488.95 156.60
  C 585.83 218.03 681.97 278.88 779.81 340.66
  Q 781.00 341.41 781.00 340.00
  L 781.00 280.25
  A 1.52 1.52 0.0 0 0 780.30 278.97
  L 445.26 66.97
  A 0.98 0.98 0.0 0 0 444.20 66.97
  L 109.48 278.82
  Q 109.00 279.12 109.00 279.68
  L 109.00 340.47
  Q 109.00 341.13 109.56 340.78
  Q 217.33 272.59 325.07 204.37
  C 351.53 187.62 377.65 170.42 404.35 154.05
  Q 410.36 150.36 414.73 149.21
  Q 430.83 144.95 444.87 155.02
  A 0.71 0.71 0.0 0 0 445.71 155.02
  C 448.51 152.96 451.02 150.96 454.27 149.90
  C 467.73 145.52 476.88 148.94 488.95 156.60
  Z
  M 360.40 263.88
  A 0.46 0.46 0.0 0 1 361.00 264.32
  L 361.00 354.86
  A 2.32 2.31 74.0 0 1 359.92 356.82
  L 109.04 515.57
  A 0.10 0.10 0.0 0 0 109.04 515.75
  L 143.83 537.68
  A 0.60 0.60 0.0 0 0 144.47 537.68
  L 359.56 405.99
  A 0.95 0.94 -15.8 0 1 361.00 406.79
  L 361.00 673.53
  A 2.94 2.92 -74.0 0 0 362.36 676.01
  Q 390.59 693.89 418.84 711.72
  C 420.37 712.68 422.17 713.45 423.84 714.32
  A 1.48 1.48 0.0 0 0 426.00 713.01
  Q 426.00 444.31 426.00 175.62
  Q 426.00 174.98 425.38 174.85
  Q 423.74 174.50 421.71 175.74
  C 393.57 192.98 366.01 211.04 338.13 228.69
  Q 223.76 301.11 109.33 373.46
  Q 109.00 373.68 109.00 374.07
  L 109.00 416.69
  A 0.47 0.47 0.0 0 0 109.72 417.09
  Q 233.60 341.20 357.69 265.15
  Q 359.12 264.27 360.40 263.88
  Z
  M 528.81 600.11
  A 0.54 0.54 0.0 0 1 528.00 599.65
  L 528.00 266.77
  A 1.06 1.05 -74.5 0 1 529.60 265.86
  Q 618.43 319.51 705.88 372.33
  Q 707.08 373.06 709.00 373.04
  Q 737.62 372.79 779.45 373.19
  Q 779.70 373.20 779.48 373.06
  L 466.42 174.96
  A 1.58 1.58 0.0 0 0 464.00 176.29
  L 464.00 712.73
  A 1.67 1.67 0.0 0 0 466.57 714.14
  L 780.34 515.58
  A 1.96 1.96 0.0 0 0 779.28 511.96
  Q 731.08 512.15 682.07 511.82
  C 678.19 511.80 675.48 512.28 672.41 514.13
  Q 600.61 557.47 528.81 600.11
  Z
  M 232.23 532.09
  A 0.31 0.31 0.0 0 0 232.23 532.62
  L 333.52 596.71
  A 0.31 0.31 0.0 0 0 334.00 596.45
  L 334.00 470.32
  A 0.31 0.31 0.0 0 0 333.53 470.06
  L 232.23 532.09
  Z
  M 109.63 610.66
  L 444.24 822.42
  A 0.69 0.69 0.0 0 0 444.96 822.42
  L 780.56 610.06
  A 0.97 0.95 74.1 0 0 781.00 609.25
  L 781.00 548.57
  A 0.47 0.47 0.0 0 0 780.28 548.17
  Q 632.17 641.94 483.78 735.83
  C 471.47 743.61 457.18 742.64 445.49 734.13
  A 1.21 1.21 0.0 0 0 443.99 734.18
  C 435.85 741.03 424.34 742.60 414.43 739.79
  Q 409.23 738.31 397.65 730.96
  Q 378.18 718.61 358.73 706.25
  C 346.49 698.47 339.00 694.74 335.45 682.89
  Q 333.96 677.89 333.99 663.52
  Q 334.03 646.80 333.99 630.14
  A 1.60 1.59 16.1 0 0 333.24 628.79
  L 207.48 549.24
  A 2.66 2.66 0.0 0 0 204.65 549.22
  C 200.22 551.97 195.48 555.81 190.28 557.18
  C 177.15 560.66 163.09 562.36 149.68 564.64
  C 134.89 567.16 121.66 556.64 110.21 548.84
  Q 109.00 548.02 109.00 549.48
  L 109.00 609.50
  A 1.39 1.38 16.6 0 0 109.63 610.66
  Z"
/>
</svg>
