<?xml version="1.0" encoding="UTF-8" standalone="no"?>
<!DOCTYPE svg PUBLIC "-//W3C//DTD SVG 1.1//EN" "http://www.w3.org/Graphics/SVG/1.1/DTD/svg11.dtd">
<svg xmlns="http://www.w3.org/2000/svg" version="1.1" viewBox="0.00 0.00 890.00 890.00">
<path fill="#ffffff" d="
  M 159.53 450.97
  Q 155.79 451.44 152.43 452.45
  C 149.97 453.19 146.51 453.29 144.05 452.80
  Q 124.57 448.91 105.17 444.65
  C 94.87 442.38 87.02 436.60 83.80 426.27
  Q 82.00 420.51 82.00 417.50
  Q 81.99 349.84 82.01 282.18
  C 82.01 277.67 83.35 269.82 85.68 265.90
  C 90.18 258.35 95.61 255.43 104.51 249.79
  Q 266.30 147.29 428.13 44.86
  Q 431.72 42.59 435.27 41.63
  C 445.96 38.72 454.58 40.58 463.76 46.39
  Q 629.15 151.07 794.50 255.78
  C 804.29 261.98 807.99 271.26 807.99 282.85
  Q 808.01 325.82 808.00 368.79
  C 808.00 379.38 804.68 389.25 796.43 395.30
  Q 792.84 397.94 785.12 400.59
  C 769.43 405.99 751.87 414.05 735.63 414.02
  Q 706.76 413.98 677.91 414.00
  C 671.39 414.01 663.80 411.85 658.08 408.41
  Q 606.68 377.45 556.02 346.72
  Q 555.00 346.10 555.00 347.29
  L 555.00 551.74
  Q 555.00 552.66 555.79 552.19
  Q 606.49 522.08 657.07 491.56
  C 664.66 486.97 672.18 485.07 681.67 485.05
  Q 730.83 484.94 780.00 485.02
  C 784.06 485.02 792.03 487.24 795.94 489.83
  C 804.73 495.66 808.01 505.42 808.01 516.21
  Q 807.99 561.79 808.00 607.37
  C 808.00 611.00 807.08 614.20 806.27 617.68
  C 803.75 628.48 794.52 633.58 787.18 638.18
  Q 757.35 656.90 727.66 675.84
  C 710.68 686.66 694.87 698.92 677.20 708.69
  Q 665.88 714.95 660.25 718.51
  Q 559.47 782.16 458.79 845.96
  C 455.60 847.98 446.58 850.41 442.92 849.72
  C 438.00 848.80 433.82 848.12 429.44 845.35
  Q 262.33 739.56 95.09 633.97
  C 85.17 627.71 82.04 617.71 82.03 606.50
  Q 81.97 561.13 82.01 515.75
  Q 82.01 513.59 83.49 507.86
  C 85.53 499.96 89.83 495.52 96.67 491.17
  Q 128.12 471.16 159.65 451.31
  Q 160.35 450.86 159.53 450.97
  Z
  M 360.40 263.88
  A 0.46 0.46 0.0 0 1 361.00 264.32
  L 361.00 354.86
  A 2.32 2.31 74.0 0 1 359.92 356.82
  L 109.04 515.57
  A 0.11 0.11 0.0 0 0 109.04 515.75
  L 143.82 537.68
  A 0.60 0.60 0.0 0 0 144.46 537.68
  L 359.56 405.99
  A 0.95 0.94 -15.8 0 1 361.00 406.79
  L 361.00 673.72
  A 2.62 2.61 16.2 0 0 362.22 675.93
  Q 389.82 693.38 417.41 710.85
  Q 420.29 712.67 423.98 714.34
  A 1.43 1.42 12.3 0 0 426.00 713.05
  Q 426.00 444.47 426.00 175.90
  Q 426.00 175.38 425.60 175.06
  Q 424.42 174.09 422.81 175.07
  C 395.84 191.44 367.30 210.21 338.13 228.69
  Q 223.77 301.12 109.34 373.46
  Q 109.00 373.67 109.00 374.07
  L 109.00 416.69
  A 0.47 0.47 0.0 0 0 109.72 417.09
  Q 233.60 341.20 357.69 265.15
  Q 359.12 264.27 360.40 263.88
  Z
  M 528.81 600.11
  A 0.54 0.54 0.0 0 1 528.00 599.65
  L 528.00 266.77
  A 1.06 1.05 -74.5 0 1 529.60 265.86
  Q 618.43 319.51 705.88 372.33
  Q 707.08 373.06 709.00 373.04
  Q 737.72 372.79 779.45 373.20
  Q 779.70 373.20 779.48 373.06
  L 466.35 174.91
  A 1.53 1.53 0.0 0 0 464.00 176.20
  L 464.00 712.73
  A 1.68 1.68 0.0 0 0 466.57 714.15
  L 780.34 515.59
  A 1.97 1.96 -61.2 0 0 779.29 511.96
  Q 731.08 512.15 682.07 511.82
  C 678.19 511.80 675.48 512.28 672.41 514.13
  Q 600.61 557.47 528.81 600.11
  Z
  M 232.24 532.09
  A 0.31 0.31 0.0 0 0 232.24 532.62
  L 333.52 596.72
  A 0.31 0.31 0.0 0 0 334.00 596.46
  L 334.00 470.32
  A 0.31 0.31 0.0 0 0 333.53 470.06
  L 232.24 532.09
  Z"
/>
</svg>
