<?xml version="1.0" encoding="UTF-8" standalone="no"?>
<!DOCTYPE svg PUBLIC "-//W3C//DTD SVG 1.1//EN" "http://www.w3.org/Graphics/SVG/1.1/DTD/svg11.dtd">
<svg xmlns="http://www.w3.org/2000/svg" version="1.1" viewBox="0.00 0.00 540.00 540.00">
<path fill="#ffffff" d="
  M 46.10 120.15
  A 0.67 0.66 32.2 0 1 45.88 119.21
  C 92.50 49.53 167.70 7.16 251.32 0.40
  A 0.63 0.62 -2.1 0 1 252.00 1.02
  L 252.00 70.03
  A 0.72 0.71 -2.6 0 1 251.35 70.74
  C 192.74 76.27 141.21 106.56 106.50 154.24
  Q 106.09 154.80 105.50 154.46
  L 46.10 120.15
  Z"
/>
<path fill="#ffffff" d="
  M 288.51 0.53
  C 371.31 6.17 448.03 50.10 494.23 119.34
  Q 494.53 119.80 494.06 120.07
  L 434.33 154.56
  Q 433.85 154.84 433.52 154.39
  C 399.17 106.74 347.42 76.28 288.43 70.70
  A 0.48 0.47 -87.4 0 1 288.00 70.22
  L 288.00 1.01
  Q 288.00 0.50 288.51 0.53
  Z"
/>
<path fill="#ffffff" d="
  M 398.85 232.74
  C 398.82 249.39 393.74 263.51 380.91 274.18
  C 369.38 283.77 357.03 292.11 345.63 301.88
  C 330.87 314.52 330.45 326.43 330.50 344.99
  Q 330.50 345.50 329.99 345.50
  L 209.25 345.50
  A 0.57 0.56 88.9 0 1 208.69 344.95
  Q 208.02 323.66 208.98 309.53
  C 211.02 279.42 236.07 264.59 257.71 248.77
  Q 267.90 241.32 273.73 233.23
  C 278.63 226.43 278.31 213.47 276.88 205.69
  Q 274.91 194.99 264.12 193.78
  C 247.51 191.91 245.50 204.82 245.78 217.77
  Q 245.79 218.50 245.07 218.50
  L 131.50 218.50
  A 0.44 0.43 89.3 0 1 131.07 218.07
  Q 130.70 197.72 131.48 177.27
  C 133.01 136.83 168.51 123.50 203.31 123.29
  Q 263.15 122.93 323.00 122.92
  C 346.87 122.91 375.52 128.06 389.99 149.56
  Q 398.47 162.15 398.62 177.44
  Q 398.90 205.09 398.85 232.74
  Z"
/>
<path fill="#ffffff" d="
  M 0.00 281.42
  L 0.00 258.71
  Q 2.72 202.10 27.39 151.11
  A 0.51 0.50 -61.8 0 1 28.10 150.89
  L 88.01 185.46
  A 0.57 0.56 27.6 0 1 88.24 186.18
  C 63.83 239.43 63.84 300.45 88.14 353.67
  A 0.73 0.73 0.0 0 1 87.84 354.61
  L 28.10 389.09
  Q 27.61 389.37 27.37 388.86
  Q 2.73 337.97 0.00 281.42
  Z"
/>
<path fill="#ffffff" d="
  M 540.00 259.57
  L 540.00 282.53
  Q 537.02 338.49 512.64 388.86
  Q 512.39 389.37 511.90 389.09
  L 452.17 354.61
  A 0.75 0.75 0.0 0 1 451.86 353.65
  C 476.26 300.36 476.01 239.72 451.98 186.60
  Q 451.58 185.72 452.42 185.24
  L 511.60 151.07
  Q 512.41 150.60 512.82 151.45
  Q 537.55 202.95 540.00 259.57
  Z"
/>
<rect fill="#ffffff" x="208.50" y="363.78" width="122.00" height="69.22" rx="0.58"/>
<path fill="#ffffff" d="
  M 251.15 539.56
  C 167.38 532.79 93.34 490.75 45.95 421.01
  Q 45.41 420.23 46.23 419.76
  L 105.62 385.45
  Q 106.05 385.20 106.35 385.60
  C 141.35 433.65 192.36 463.38 251.39 469.32
  A 0.68 0.67 2.8 0 1 252.00 469.99
  L 252.00 538.78
  A 0.79 0.78 2.4 0 1 251.15 539.56
  Z"
/>
<path fill="#ffffff" d="
  M 494.05 419.90
  A 0.61 0.61 0.0 0 1 494.25 420.77
  C 447.33 489.90 372.25 533.51 288.78 539.51
  A 0.73 0.73 0.0 0 1 288.00 538.78
  L 288.00 469.98
  Q 288.00 469.36 288.61 469.31
  C 347.58 463.55 399.20 433.30 433.53 385.60
  Q 433.86 385.15 434.35 385.43
  L 494.05 419.90
  Z"
/>
</svg>
