<?xml version="1.0" encoding="UTF-8" standalone="no"?>
<!DOCTYPE svg PUBLIC "-//W3C//DTD SVG 1.1//EN" "http://www.w3.org/Graphics/SVG/1.1/DTD/svg11.dtd">
<svg xmlns="http://www.w3.org/2000/svg" version="1.1" viewBox="0.00 0.00 110.00 110.00">
<path fill="#ffffff" d="
  M 53.30 0.00
  L 57.07 0.00
  C 86.71 2.50 108.64 23.50 110.00 53.57
  L 110.00 57.05
  C 107.48 86.79 86.68 108.32 56.68 110.00
  L 53.21 110.00
  C 23.53 107.66 1.51 86.74 0.00 56.67
  L 0.00 52.95
  C 1.79 22.97 23.67 2.30 53.30 0.00
  Z
  M 106.00 55.01
  A 51.02 51.02 0.0 0 0 54.98 3.99
  A 51.02 51.02 0.0 0 0 3.96 55.01
  A 51.02 51.02 0.0 0 0 54.98 106.03
  A 51.02 51.02 0.0 0 0 106.00 55.01
  Z"
/>
<path fill="#ffffff" d="
  M 67.60 94.71
  A 2.24 1.54 -32.2 0 0 63.81 94.56
  Q 63.51 95.07 63.83 96.51
  A 0.73 0.73 0.0 0 1 63.23 97.39
  L 58.98 98.02
  A 0.78 0.78 0.0 0 1 58.08 97.30
  L 57.96 95.34
  Q 57.92 94.75 57.33 94.75
  L 54.26 94.75
  Q 53.52 94.75 53.51 95.49
  L 53.48 97.14
  A 0.66 0.66 0.0 0 1 52.80 97.78
  L 47.80 97.68
  A 0.73 0.72 83.4 0 1 47.13 97.14
  L 46.38 94.16
  A 0.56 0.56 0.0 0 0 45.41 93.93
  L 43.51 96.12
  Q 43.18 96.51 42.66 96.51
  Q 40.53 96.52 39.13 94.96
  A 1.23 1.22 -61.4 0 1 38.84 93.96
  Q 39.69 88.59 40.50 83.25
  C 40.89 80.70 31.69 77.47 29.70 76.84
  Q 29.23 76.69 28.82 76.95
  C 23.66 80.18 31.63 85.48 33.63 88.00
  A 1.81 1.80 -24.3 0 1 32.53 90.90
  Q 30.64 91.24 29.01 90.51
  Q 28.50 90.28 28.26 89.78
  Q 20.52 74.08 12.96 58.30
  Q 11.09 54.39 10.39 51.31
  Q 10.27 50.78 10.51 50.30
  Q 18.28 34.60 26.33 19.10
  C 28.61 14.70 31.30 11.81 36.26 12.05
  Q 56.59 13.05 76.93 14.09
  Q 82.81 14.38 85.42 20.17
  Q 92.48 35.79 99.58 51.05
  A 2.16 2.14 -44.8 0 1 99.57 52.87
  Q 91.11 70.75 82.44 88.94
  Q 81.39 91.13 78.24 90.27
  Q 77.89 90.18 77.72 89.86
  C 74.71 84.14 89.89 81.20 82.92 75.78
  A 0.91 0.91 0.0 0 0 81.99 75.66
  Q 77.33 77.65 71.03 81.28
  C 69.48 82.18 69.27 82.90 69.68 84.70
  Q 70.81 89.63 71.97 94.54
  A 0.63 0.62 -17.5 0 1 71.58 95.27
  L 68.20 96.57
  Q 67.68 96.77 67.55 96.24
  Q 67.39 95.55 67.60 94.71
  Z
  M 40.38 26.18
  L 30.66 52.70
  Q 30.48 53.19 30.99 53.27
  Q 33.53 53.69 34.57 52.05
  Q 40.94 41.95 47.50 31.98
  C 48.54 30.38 66.61 28.55 67.56 28.47
  Q 68.19 28.41 68.48 28.96
  L 78.86 48.62
  A 0.50 0.50 0.0 0 0 79.78 48.52
  C 81.23 43.34 74.67 31.19 72.30 26.17
  C 71.59 24.65 70.07 23.17 68.48 23.17
  Q 57.32 23.19 41.09 25.60
  A 0.90 0.89 5.5 0 0 40.38 26.18
  Z
  M 44.33 59.93
  Q 43.94 56.94 44.77 54.00
  Q 44.89 53.56 44.66 53.30
  A 0.35 0.35 0.0 0 0 44.07 53.42
  L 41.90 59.64
  Q 41.74 60.09 41.27 60.14
  Q 35.65 60.65 34.45 66.25
  C 32.84 73.85 39.04 74.49 44.43 75.74
  A 1.18 1.17 -5.8 0 1 45.23 76.39
  Q 45.79 77.61 46.79 78.46
  A 0.29 0.29 0.0 0 0 47.20 78.06
  Q 46.37 77.05 46.55 75.77
  A 1.34 1.31 -15.4 0 1 47.07 74.88
  C 54.21 69.54 49.68 64.58 44.77 60.71
  A 1.18 1.18 0.0 0 1 44.33 59.93
  Z
  M 83.24 53.05
  C 80.16 56.65 81.35 60.04 83.27 63.64
  Q 83.74 64.52 83.74 63.52
  C 83.74 61.47 82.08 57.65 86.09 58.13
  A 0.73 0.73 0.0 0 0 86.77 56.97
  L 83.97 53.08
  A 0.47 0.46 47.1 0 0 83.24 53.05
  Z
  M 28.19 61.32
  L 28.27 63.93
  Q 28.29 64.31 28.52 64.02
  Q 31.61 60.22 28.44 56.69
  Q 28.03 56.22 27.67 56.74
  L 25.80 59.37
  A 0.57 0.57 0.0 0 0 26.11 60.24
  L 27.71 60.69
  A 0.67 0.67 0.0 0 1 28.19 61.32
  Z
  M 71.46 74.52
  C 80.36 69.33 70.89 51.55 59.60 65.38
  C 56.94 68.63 59.60 73.62 63.06 74.92
  C 64.97 75.63 69.80 75.49 71.46 74.52
  Z
  M 55.60 88.57
  C 57.60 88.52 58.82 89.47 60.63 90.04
  A 1.41 1.41 0.0 0 0 62.34 88.13
  C 61.66 86.54 57.59 75.31 55.18 77.87
  Q 50.89 82.42 48.20 88.31
  A 0.80 0.80 0.0 0 0 49.12 89.42
  Q 52.23 88.66 55.60 88.57
  Z"
/>
</svg>
