<?xml version="1.0" encoding="UTF-8" standalone="no"?>
<!DOCTYPE svg PUBLIC "-//W3C//DTD SVG 1.1//EN" "http://www.w3.org/Graphics/SVG/1.1/DTD/svg11.dtd">
<svg xmlns="http://www.w3.org/2000/svg" version="1.1" viewBox="0 0 512 512">
<path fill="#ffffff" d="
  M 242.06 0.00
  L 272.06 0.00
  Q 279.15 1.27 286.34 1.70
  Q 287.03 1.74 288.06 2.15
  Q 288.93 2.50 289.87 2.53
  Q 292.17 2.60 292.24 2.61
  Q 351.83 11.20 400.56 44.69
  Q 470.44 92.71 498.07 173.81
  Q 507.74 202.16 510.25 228.00
  Q 511.25 238.31 512.00 241.56
  L 512.00 268.31
  Q 511.15 273.43 510.66 278.59
  Q 509.81 287.37 509.61 288.88
  Q 500.99 353.26 463.09 406.11
  Q 433.20 447.79 389.34 474.36
  Q 359.10 492.67 322.44 502.94
  Q 314.60 505.13 310.19 505.63
  A 2.10 1.57 -59.9 0 0 309.30 506.01
  Q 308.17 506.86 306.75 506.91
  Q 304.13 507.00 303.77 507.07
  Q 293.58 509.25 283.21 510.19
  Q 279.02 510.57 275.31 511.07
  Q 271.38 511.60 267.44 512.00
  L 241.44 512.00
  Q 238.83 510.99 236.00 511.01
  Q 234.67 511.02 233.41 510.70
  Q 232.02 510.35 230.89 510.33
  Q 227.91 510.27 222.06 509.44
  Q 156.57 500.13 104.81 462.70
  Q 96.76 456.88 89.14 450.28
  Q 37.49 405.54 14.40 340.45
  Q 8.79 324.63 4.75 305.00
  Q 3.75 300.14 3.40 296.86
  Q 3.29 295.77 2.68 293.22
  Q 2.25 291.37 2.40 289.44
  Q 2.43 289.04 2.30 288.71
  Q 2.16 288.35 2.00 288.00
  Q 1.75 287.47 1.72 286.94
  Q 1.33 279.26 0.00 271.69
  L 0.00 243.19
  Q 0.57 237.09 1.13 230.99
  Q 3.03 210.35 7.50 194.75
  Q 8.24 192.18 8.54 190.44
  Q 9.12 187.09 9.42 186.16
  Q 11.59 179.43 13.89 172.76
  Q 34.48 112.86 80.48 69.48
  Q 111.28 40.44 149.75 22.71
  L 153.75 20.79
  Q 169.29 14.60 185.29 9.74
  Q 186.55 9.36 190.30 8.72
  Q 192.01 8.43 193.64 7.87
  Q 195.92 7.09 196.92 6.87
  Q 219.24 1.82 242.06 0.00
  Z
  M 32.19 179.19
  Q 13.26 234.66 22.05 291.77
  Q 23.72 302.62 25.65 311.19
  Q 27.82 320.83 31.05 330.19
  Q 35.78 343.94 38.00 349.00
  Q 74.71 432.60 157.32 471.34
  Q 189.13 486.26 223.99 490.82
  Q 287.13 499.08 345.25 475.61
  Q 354.45 471.90 363.43 467.33
  Q 423.76 436.66 458.44 379.44
  Q 485.17 335.33 491.00 286.75
  Q 496.37 242.04 485.81 197.69
  Q 485.41 195.99 484.90 194.68
  Q 484.16 192.79 483.93 191.71
  Q 482.64 185.73 480.81 180.69
  Q 479.35 176.64 476.31 168.87
  Q 473.60 161.93 471.43 157.23
  Q 451.04 113.02 414.70 80.30
  Q 380.10 49.15 336.28 33.29
  Q 310.74 24.05 283.74 21.10
  Q 263.82 18.93 257.50 19.00
  Q 214.14 19.46 173.68 34.08
  Q 165.87 36.90 158.12 40.47
  Q 150.11 44.17 143.06 48.06
  Q 71.30 87.68 38.32 163.07
  Q 35.46 169.59 32.19 179.19
  Z"
/>
<path fill="#ffffff" d="
  M 273.76 186.31
  Q 273.44 186.08 273.06 185.69
  Q 227.97 139.21 183.11 92.51
  Q 182.39 91.76 182.15 91.25
  Q 181.39 89.64 183.94 89.99
  Q 184.99 90.14 185.96 90.63
  L 395.49 197.09
  A 0.80 0.80 13.1 0 1 395.94 197.81
  L 396.00 394.26
  A 0.68 0.68 0.0 0 1 395.32 394.94
  Q 310.22 395.05 224.75 394.87
  Q 210.50 394.84 196.97 394.52
  A 2.63 2.63 -12.7 0 1 194.69 393.08
  Q 142.07 288.80 88.80 184.88
  Q 88.05 183.41 88.00 181.74
  Q 87.95 179.85 89.30 181.16
  Q 109.80 201.07 130.60 221.39
  Q 159.69 249.82 188.09 278.95
  A 1.61 1.58 -72.0 0 1 188.52 279.81
  Q 189.25 284.10 190.02 288.39
  Q 190.95 293.50 191.94 296.90
  Q 201.24 328.77 230.41 345.53
  Q 246.73 354.91 264.50 356.25
  Q 266.66 356.41 268.07 356.61
  Q 270.22 356.91 271.60 356.78
  Q 279.24 356.08 286.80 354.77
  Q 295.09 353.33 301.52 350.74
  Q 326.71 340.56 341.31 317.31
  Q 351.59 300.95 353.11 281.11
  Q 353.12 281.02 353.60 276.91
  Q 353.90 274.35 353.56 271.79
  Q 353.10 268.30 353.09 268.18
  Q 352.79 265.28 352.00 259.75
  Q 350.99 252.71 349.02 247.00
  Q 347.30 242.00 343.68 235.12
  Q 333.18 215.16 313.82 203.69
  Q 307.05 199.67 300.62 197.06
  Q 293.27 194.07 286.25 193.25
  Q 278.60 192.35 274.48 186.96
  Q 274.28 186.69 273.76 186.31
  Z"
/>
<path fill="#ffffff" d="
  M 255.54 262.79
  Q 254.51 264.09 253.73 265.55
  A 0.74 0.70 -71.8 0 1 253.01 265.94
  L 210.61 259.86
  A 0.88 0.87 -75.9 0 1 209.92 258.69
  Q 211.46 254.52 213.10 250.57
  Q 215.00 245.99 216.89 242.74
  Q 227.11 225.16 244.69 217.19
  Q 258.65 210.85 274.07 211.00
  A 1.04 1.04 -80.6 0 1 275.05 212.37
  Q 273.57 216.74 273.14 220.99
  Q 271.56 236.46 268.45 253.37
  A 2.08 2.07 85.9 0 1 267.07 254.97
  Q 259.81 257.44 255.54 262.79
  Z"
/>
<path fill="#ffffff" d="
  M 283.69 257.81
  Q 281.42 256.15 282.05 253.52
  Q 282.65 251.03 282.66 250.92
  Q 285.01 232.18 288.23 213.56
  A 0.46 0.45 -77.9 0 1 288.79 213.19
  Q 301.47 216.47 310.44 223.31
  Q 336.05 242.85 336.93 276.19
  A 0.54 0.54 -3.4 0 1 336.44 276.74
  Q 331.50 277.28 326.56 276.46
  Q 310.18 273.75 293.68 271.87
  A 0.74 0.73 85.8 0 1 293.06 271.33
  Q 290.89 263.09 283.69 257.81
  Z"
/>
<path fill="#ffffff" d="
  M 261.77 293.49
  A 2.19 2.13 20.7 0 1 262.77 295.62
  L 256.67 336.73
  A 1.01 0.99 13.1 0 1 255.37 337.52
  Q 234.20 330.75 221.67 314.96
  Q 215.41 307.05 212.03 297.55
  Q 208.20 286.77 207.98 274.53
  Q 207.95 272.42 210.02 272.85
  Q 223.78 275.70 237.17 277.00
  Q 239.86 277.26 244.13 278.09
  Q 247.41 278.73 251.11 279.08
  A 0.76 0.75 84.8 0 1 251.76 279.63
  Q 254.24 288.64 261.77 293.49
  Z"
/>
<path fill="#ffffff" d="
  M 334.15 291.22
  A 0.49 0.48 -76.0 0 1 334.51 291.83
  Q 329.32 310.75 315.34 323.36
  Q 296.36 340.48 270.57 339.00
  A 0.62 0.61 7.3 0 1 270.00 338.27
  Q 271.72 329.72 272.69 321.08
  Q 273.95 309.86 276.33 296.94
  A 1.66 1.63 87.8 0 1 277.51 295.65
  Q 283.19 294.06 287.19 290.23
  Q 287.25 290.17 289.33 287.39
  Q 291.53 284.44 296.00 285.25
  Q 311.31 288.02 318.75 288.75
  Q 325.84 289.44 334.15 291.22
  Z"
/>
</svg>
