<?xml version="1.0" encoding="UTF-8" standalone="no"?>
<!DOCTYPE svg PUBLIC "-//W3C//DTD SVG 1.1//EN" "http://www.w3.org/Graphics/SVG/1.1/DTD/svg11.dtd">
<svg xmlns="http://www.w3.org/2000/svg" version="1.1" viewBox="0 0 512 512">
<path fill="#ffffff" d="
  M 245.56 0.00
  L 267.06 0.00
  Q 370.34 5.97 440.73 78.64
  Q 447.75 85.89 454.03 93.57
  Q 507.85 159.32 512.00 245.81
  L 512.00 268.06
  Q 506.39 365.14 440.69 433.44
  Q 372.51 504.30 272.00 511.79
  L 266.69 512.00
  L 245.69 512.00
  Q 153.75 507.44 86.19 447.69
  Q 78.72 441.09 71.77 433.84
  Q 5.59 364.89 0.00 267.44
  L 0.00 243.69
  L 0.25 239.29
  Q 6.24 158.18 56.18 95.76
  Q 62.40 87.98 69.29 80.67
  Q 124.77 21.73 204.25 5.00
  Q 222.56 1.14 245.56 0.00
  Z
  M 196.10 72.10
  L 212.49 83.72
  A 0.92 0.89 20.6 0 0 213.93 83.09
  L 215.80 63.34
  A 1.01 0.98 81.6 0 1 216.39 62.52
  L 257.79 44.95
  A 1.11 1.10 -44.0 0 1 258.70 44.96
  L 293.40 61.18
  Q 294.99 61.92 295.15 63.67
  L 296.98 83.54
  A 0.60 0.59 69.7 0 0 297.92 83.98
  L 314.49 72.29
  A 2.31 2.30 -50.5 0 1 316.75 72.07
  Q 353.28 88.54 388.64 105.41
  Q 391.06 106.56 392.93 107.54
  Q 394.75 108.50 395.10 110.54
  Q 410.26 199.77 425.10 288.52
  Q 426.45 296.54 430.50 315.75
  Q 439.18 356.86 444.69 398.06
  Q 444.96 400.06 446.18 398.45
  Q 480.43 353.24 490.15 297.23
  Q 498.62 248.41 487.50 201.25
  Q 472.88 139.27 428.44 92.81
  Q 382.78 45.08 321.41 27.33
  Q 311.94 24.60 301.96 22.70
  Q 234.78 9.91 171.05 33.81
  Q 161.46 37.40 152.68 41.72
  Q 119.59 57.95 92.06 84.31
  Q 40.50 133.68 24.36 201.98
  Q 22.06 211.70 20.67 221.62
  Q 13.41 273.24 27.80 323.20
  Q 30.61 332.97 34.21 342.14
  Q 46.10 372.48 65.92 398.54
  Q 66.77 399.66 67.00 398.27
  Q 72.43 364.69 76.84 330.98
  Q 77.73 324.19 80.75 306.25
  Q 97.24 208.34 113.96 110.46
  Q 114.47 107.44 114.63 107.07
  Q 115.33 105.34 117.29 104.51
  Q 151.61 89.97 185.94 75.44
  Q 192.37 72.71 195.21 71.94
  A 1.03 1.01 54.6 0 1 196.10 72.10
  Z
  M 175.06 123.11
  L 174.94 97.87
  A 0.81 0.80 77.5 0 0 173.80 97.14
  Q 154.08 106.09 134.54 116.14
  A 1.05 1.05 -10.7 0 0 133.98 116.96
  Q 133.34 123.11 132.27 129.31
  Q 130.83 137.65 130.82 137.70
  Q 116.49 226.71 101.65 315.64
  Q 100.01 325.43 98.69 335.42
  Q 93.86 372.01 88.81 408.58
  Q 88.72 409.23 89.31 408.94
  Q 131.62 387.99 173.29 366.38
  Q 213.54 345.52 253.34 325.86
  Q 255.00 325.04 255.00 323.18
  L 255.00 59.95
  A 0.58 0.57 -12.8 0 0 254.17 59.44
  L 227.17 72.38
  A 2.06 1.98 -13.3 0 0 226.00 74.19
  L 226.00 99.98
  A 1.09 1.09 -12.2 0 1 225.36 100.97
  L 175.66 123.49
  A 0.42 0.42 77.3 0 1 175.06 123.11
  Z
  M 315.25 116.09
  Q 324.93 121.08 335.20 124.88
  Q 338.32 126.03 338.13 123.37
  Q 338.01 121.74 338.01 121.61
  Q 338.17 110.93 337.76 100.50
  Q 337.72 99.47 336.87 100.06
  L 315.18 115.11
  A 0.57 0.57 -49.1 0 0 315.25 116.09
  Z
  M 360.19 301.69
  Q 357.61 301.70 353.81 301.19
  Q 325.69 297.38 284.51 292.56
  A 0.70 0.54 9.0 0 0 283.78 292.96
  Q 283.64 293.53 284.44 293.81
  Q 286.77 294.64 294.71 299.01
  Q 339.21 323.52 385.26 345.01
  Q 386.01 345.35 385.92 344.54
  Q 382.91 315.38 378.49 286.25
  Q 371.48 240.11 364.15 194.02
  Q 363.99 193.01 363.61 193.17
  A 1.02 0.52 87.9 0 0 363.22 194.00
  Q 362.78 201.00 362.94 208.01
  Q 363.16 217.50 363.01 221.99
  Q 362.26 243.96 362.00 258.75
  Q 361.58 282.74 360.71 301.19
  A 0.52 0.52 -88.9 0 1 360.19 301.69
  Z
  M 414.39 431.22
  Q 394.83 421.51 375.00 412.57
  Q 359.34 405.51 344.21 397.38
  Q 330.29 389.92 326.54 387.98
  Q 291.68 370.07 256.31 352.18
  A 1.09 1.08 44.1 0 0 255.32 352.19
  Q 217.99 371.40 180.35 390.50
  Q 179.70 390.83 166.38 397.79
  Q 158.76 401.77 152.19 404.69
  Q 124.20 417.12 102.87 427.69
  Q 99.45 429.39 96.33 430.39
  A 0.77 0.76 -32.8 0 0 96.05 431.68
  Q 146.34 477.59 213.53 489.82
  Q 250.28 496.51 284.44 492.19
  Q 358.48 482.82 414.62 432.95
  A 1.06 1.05 37.5 0 0 414.39 431.22
  Z"
/>
<path fill="#ffffff" d="
  M 137.78 256.91
  Q 143.61 221.12 149.26 185.65
  A 1.59 1.56 -9.5 0 1 150.10 184.49
  Q 189.36 164.33 227.76 143.97
  Q 229.29 143.16 231.10 142.99
  Q 232.77 142.83 231.94 144.29
  Q 231.39 145.25 230.30 146.11
  Q 228.45 147.59 228.41 147.62
  Q 181.15 190.11 163.81 205.56
  Q 162.19 207.01 161.16 208.68
  Q 160.40 209.92 159.73 212.47
  Q 143.46 274.38 126.98 336.24
  Q 126.56 337.82 126.08 338.57
  Q 125.15 340.03 125.02 338.31
  Q 124.85 336.02 125.26 333.99
  Q 125.65 332.07 125.66 332.00
  Q 131.66 294.44 137.78 256.91
  Z"
/>
</svg>
