<?xml version="1.0" encoding="UTF-8" standalone="no"?>
<!DOCTYPE svg PUBLIC "-//W3C//DTD SVG 1.1//EN" "http://www.w3.org/Graphics/SVG/1.1/DTD/svg11.dtd">
<svg xmlns="http://www.w3.org/2000/svg" version="1.1" viewBox="0 0 512 512">
<path fill="#ffffff" d="
  M 249.81 0.00
  L 262.56 0.00
  Q 357.18 3.76 426.57 65.29
  Q 434.05 71.93 440.93 79.20
  Q 506.29 148.15 511.79 245.00
  L 512.00 250.31
  L 512.00 262.56
  L 511.79 267.50
  Q 509.35 316.65 490.19 359.44
  Q 457.13 433.27 387.82 475.39
  Q 379.15 480.66 370.31 485.05
  Q 319.16 510.41 261.44 512.00
  L 250.19 512.00
  Q 193.20 510.39 143.56 485.94
  Q 71.79 450.58 32.06 379.94
  Q 2.02 326.51 0.00 262.44
  L 0.00 250.19
  Q 1.41 198.08 21.56 153.31
  Q 60.65 66.46 145.06 25.31
  Q 193.55 1.68 249.81 0.00
  Z
  M 492.04 256.01
  A 236.03 236.03 0.0 0 0 256.01 19.98
  A 236.03 236.03 0.0 0 0 19.98 256.01
  A 236.03 236.03 0.0 0 0 256.01 492.04
  A 236.03 236.03 0.0 0 0 492.04 256.01
  Z"
/>
<path fill="#ffffff" d="
  M 56.45 204.41
  Q 54.85 203.80 55.24 202.36
  Q 73.35 136.55 125.43 94.20
  Q 133.17 87.90 141.56 82.41
  Q 195.60 47.06 260.54 48.04
  A 1.65 1.65 4.5 0 1 262.15 49.92
  L 242.81 187.05
  A 1.07 1.06 -2.8 0 1 242.00 187.94
  Q 210.23 195.39 194.74 223.56
  A 0.73 0.72 18.2 0 1 194.00 223.93
  L 57.44 204.67
  Q 56.94 204.60 56.45 204.41
  Z"
/>
<path fill="#ffffff" d="
  M 419.16 256.21
  Q 371.85 249.54 324.55 242.76
  A 0.71 0.70 88.2 0 1 323.96 242.20
  Q 317.00 210.34 288.97 195.10
  A 1.87 1.86 18.3 0 1 288.01 193.20
  L 307.39 57.05
  Q 307.74 54.55 310.18 55.23
  Q 371.49 72.32 412.77 119.40
  Q 419.32 126.88 425.15 135.10
  Q 465.00 191.31 463.96 260.74
  A 1.48 1.47 -85.7 0 1 462.29 262.18
  Q 440.07 259.16 419.16 256.21
  Z"
/>
<path fill="#ffffff" d="
  M 93.08 255.83
  Q 139.54 262.42 187.27 269.18
  A 0.75 0.75 -2.8 0 1 187.90 269.75
  Q 195.37 301.04 223.37 317.25
  A 1.30 1.26 19.6 0 1 224.00 318.53
  L 204.51 455.70
  A 1.59 1.59 -78.0 0 1 202.51 457.00
  Q 139.35 439.45 97.40 390.43
  Q 90.87 382.79 85.22 374.58
  Q 47.71 320.01 48.01 251.28
  A 1.44 1.44 -86.2 0 1 49.64 249.85
  Q 71.93 252.83 93.08 255.83
  Z"
/>
<path fill="#ffffff" d="
  M 455.07 307.44
  Q 457.46 307.78 456.82 310.11
  Q 444.53 355.28 413.77 391.04
  Q 368.92 443.19 302.44 458.69
  Q 277.84 464.42 250.70 463.82
  A 0.56 0.53 -0.5 0 1 250.15 463.31
  Q 250.03 460.94 250.75 455.75
  Q 259.67 391.86 268.96 328.03
  Q 269.18 326.54 268.98 324.87
  A 0.63 0.62 80.7 0 1 269.46 324.19
  Q 301.52 316.60 317.37 288.36
  A 0.81 0.80 18.7 0 1 318.19 287.96
  L 455.07 307.44
  Z"
/>
</svg>
