<?xml version="1.0" encoding="UTF-8" standalone="no"?>
<!DOCTYPE svg PUBLIC "-//W3C//DTD SVG 1.1//EN" "http://www.w3.org/Graphics/SVG/1.1/DTD/svg11.dtd">
<svg xmlns="http://www.w3.org/2000/svg" version="1.1" viewBox="0 0 128 128">
<path fill="#ffffff" d="
  M 11.56 0.00
  L 116.56 0.00
  Q 126.15 1.95 128.00 11.56
  L 128.00 118.31
  Q 125.22 126.88 116.19 128.00
  L 9.44 128.00
  Q 1.63 125.15 0.00 116.94
  L 0.00 11.19
  Q 2.09 1.82 11.56 0.00
  Z
  M 36.55 53.34
  Q 40.84 53.88 45.59 54.03
  A 1.50 1.49 16.4 0 0 46.90 53.32
  Q 51.09 46.60 58.46 44.80
  A 0.73 0.69 -4.3 0 0 59.01 44.19
  L 62.01 19.55
  Q 62.42 16.14 58.92 16.48
  Q 36.14 18.72 23.14 39.36
  Q 19.64 44.93 19.25 47.75
  Q 18.80 51.01 21.94 51.56
  Q 23.53 51.84 29.29 52.44
  Q 29.43 52.46 36.55 53.34
  Z
  M 83.92 58.86
  Q 94.90 60.61 104.89 61.76
  Q 107.74 62.09 109.09 61.73
  Q 112.26 60.88 111.39 57.44
  Q 110.81 55.14 110.79 55.01
  Q 107.87 39.17 95.90 28.34
  Q 89.11 22.21 80.43 19.31
  Q 77.06 18.18 76.50 21.69
  Q 74.59 33.60 74.02 46.01
  A 0.85 0.81 17.5 0 0 74.43 46.75
  Q 80.85 50.57 83.12 58.16
  A 1.00 1.00 -3.7 0 0 83.92 58.86
  Z
  M 53.31 81.09
  Q 46.63 76.99 44.92 69.68
  A 0.74 0.73 88.2 0 0 44.32 69.11
  Q 33.57 67.44 22.78 66.02
  Q 19.86 65.63 17.14 67.16
  A 1.40 1.39 -18.8 0 0 16.44 68.58
  Q 20.61 97.21 45.85 108.08
  Q 47.85 108.94 48.88 108.83
  Q 50.83 108.61 51.27 106.06
  Q 53.19 94.97 54.08 82.60
  A 1.64 1.63 -72.2 0 0 53.31 81.09
  Z
  M 107.76 77.33
  Q 106.31 76.29 104.74 76.21
  Q 102.84 76.11 102.76 76.10
  Q 92.43 74.52 82.00 74.02
  A 0.86 0.82 -72.9 0 0 81.25 74.44
  Q 77.53 80.77 69.73 83.25
  A 0.85 0.84 86.6 0 0 69.15 83.91
  Q 67.68 92.24 66.93 99.99
  Q 66.93 100.03 66.33 103.97
  Q 65.96 106.39 66.27 108.94
  A 2.08 2.08 89.5 0 0 68.12 110.76
  Q 73.26 111.30 78.26 109.65
  Q 100.78 102.18 108.73 80.50
  Q 109.45 78.55 107.76 77.33
  Z"
/>
</svg>
